<svg xmlns="http://www.w3.org/2000/svg" viewBox="0 0 368.91 375.66"><path d="M803.8,340.21h90.72v5.93c0,41.65-.22,83.3.11,125,.13,16.08-6,28-20,35.75a21.47,21.47,0,0,0-2.49,1.65c-.23.17-.31.56-.66,1.24l6.89,4.63c10.43,7,16.11,16.74,16.14,29.34q.16,53.47,0,107a9.35,9.35,0,0,1-1.37,5.13q-21.36,29.57-43,59a7,7,0,0,1-1.34,1.06q-22-30.1-43.85-60.17a9.25,9.25,0,0,1-1.3-5.15q-.09-153.69,0-307.39C803.59,342.29,803.7,341.49,803.8,340.21Zm31.05,185.1a10.63,10.63,0,0,0-.43,1.87q0,57.18,0,114.36a6,6,0,0,0,.79,3.28c4.41,6.22,8.95,12.35,13.87,19.07,4.36-6,8.53-11.34,12.26-17a14.08,14.08,0,0,0,2.35-7.25c.14-36.29.1-72.58.08-108.86,0-1.76-.18-3.52-.29-5.47Zm28.63-31.23V371.19H834.66V494.08Z" transform="translate(-664.78 -340.15)"/><path d="M920.55,630.38V340.46c1.57-.12,2.86-.31,4.15-.31,15.33,0,30.66,0,46,.28a8.78,8.78,0,0,1,6.14,3c16.25,22.34,32.29,44.85,48.34,67.34,1.12,1.58,2,3.34,3.11,5.31l-5.1.41c4.75,3.36,1.62,7.06,1.48,10.53-.31,8.15,0,16.32-.16,24.48a76.44,76.44,0,0,1-1,8.11l4.39,1,0,1c-1.73.11-3.45.29-5.18.31-22.16.25-44.32.62-66.48.61-4.56,0-5.89,1.13-5.87,5.78q.27,58,0,116a16.29,16.29,0,0,1-2.79,8.64C939,605.14,930.11,617.16,920.55,630.38Zm30.27-259.33a12.3,12.3,0,0,0-.34,2.05c0,18.31,0,36.62-.1,54.93,0,3.8,1.74,4.32,4.89,4.31,13.65-.08,27.31,0,41,.05h7.38c-1.54-2.35-2.36-3.71-3.28-5-12.46-17.26-25.16-34.36-37.27-51.86C959.65,370.62,956,369.83,950.82,371.05Z" transform="translate(-664.78 -340.15)"/><path d="M767.76,432.37H712.82c1.49-2.42,2.18-3.71,3-4.89q12.38-17.25,24.77-34.48c4.85-6.76,9.85-13.43,14.47-20.36,2.41-3.62,5.84-3,8.89-2.47.8.14,1.5,2.79,1.7,4.81.27-.31.52-.64.81-.94.58-.62,1-.55,1.37-.06a8.17,8.17,0,0,0,.12-3.5c-2.35-10-.55-19.61,1.26-30.09-8.75,0-17.52-.12-26.28.14-1.26,0-2.73,1.69-3.64,2.94q-34.81,47.83-69.51,95.77c-6.78,9.36-6.6,9.24,0,18.55,2.58,3.67,5.37,5,9.9,5,27.32-.46,54.65-.61,82-.82,6.59-.05,6.6-.33,6.23-7.05C767.45,447.59,767.76,440.25,767.76,432.37Z" transform="translate(-664.78 -340.15)"/><path d="M682.71,475.31c12.57,0,24.16-.11,35.75.14,1.37,0,3,1.73,4,3.06,13,17.85,25.5,36.18,39.27,53.46,4.77,6,6,11.53,5.84,18.46-.23,10.3.07,20.61,0,30.91,0,2.09-.74,4.18-1.42,7.83Z" transform="translate(-664.78 -340.15)"/><path d="M964.6,568.27c0-10.24.8-20.56-.2-30.71-1.38-14.15,2.47-25.77,12-36.32,6.43-7.14,11.44-15.55,17.29-23.24a7.21,7.21,0,0,1,4.72-2.72c10-.24,20-.12,30-.12h5.31l-68.05,93.46Z" transform="translate(-664.78 -340.15)"/><rect x="95.22" y="134.98" width="7.59" height="69.87"/><rect x="93.73" y="2.36" width="6.8" height="69.87"/></svg>