<svg id="Layer_1" data-name="Layer 1" xmlns="http://www.w3.org/2000/svg" viewBox="0 0 429.6 440.4"><defs><style>.cls-1{stroke:#231f20;stroke-miterlimit:10;stroke-width:10px;}</style></defs><path d="M2817.25,71.17V-230.56c.69.37,1.29.65,1.84,1l111,70.7a3.6,3.6,0,0,1,1.92,3.51q-.11,31.35,0,62.68a3.45,3.45,0,0,1-1.74,3.39c-5,3-9.82,6.18-15.07,9.51.82.59,1.41,1,2,1.42,4.36,2.78,8.73,5.58,13.12,8.31a3,3,0,0,1,1.66,2.92q-.07,31.73,0,63.44a3.05,3.05,0,0,1-1.61,3q-55.74,35.45-111.44,71C2818.5,70.54,2818,70.78,2817.25,71.17Zm34.12-68.33a4.31,4.31,0,0,0,.84-.33c13.64-8.69,27.28-17.36,40.88-26.14a4,4,0,0,0,1.19-2.82c.1-8.94,0-17.87.1-26.79a3.73,3.73,0,0,0-2-3.71c-11.16-7-22.28-14.11-33.41-21.19-.7-.44-1.38-.93-2.32-1.56,1-.64,1.62-1.13,2.33-1.58,11.2-7.11,22.39-14.25,33.62-21.31a3.36,3.36,0,0,0,1.79-3.38q-.14-13.41,0-26.8a3.59,3.59,0,0,0-1.85-3.55c-11.73-7.37-23.32-14.82-35-22.25-2-1.26-3.95-2.5-6.19-3.92v122" transform="translate(-2590.99 240.6)"/><path d="M2678.46-86.88l16.34,10.14c6.13,3.81,12.23,7.67,18.41,11.38a3.66,3.66,0,0,1,1.94,3.74c-.07,11.71,0,23.43-.05,35.14,0,1.28,0,2.25,1.3,3.13,12.87,8.48,25.67,17.06,38.51,25.59a10.82,10.82,0,0,0,1.4.71c0-1.12.1-1.88.1-2.69v-59.4a3.83,3.83,0,0,0-2-3.74q-37-23.68-73.91-47.54a4.39,4.39,0,0,1-2.26-4.34c.1-13.41.07-26.8,0-40.2a3.82,3.82,0,0,1,1.88-3.81q54.55-35.21,109-70.53c.56-.37,1.17-.69,2-1.13V-109.8a15.28,15.28,0,0,1-1.57-.78c-10.53-6.87-21-13.79-31.6-20.6a3.42,3.42,0,0,1-1.66-3.43c.06-8.18,0-16.35,0-24.52v-3.32l-41.58,27.67c1,.7,1.64,1.2,2.33,1.66q36.14,23.85,72.26,47.67a3.89,3.89,0,0,1,2,3.76q-.09,75.09,0,150.16V71.3c-.89-.48-1.48-.76-2-1.12Q2734.66,34.82,2680.05-.5a3.16,3.16,0,0,1-1.82-3.07q.09-40.69,0-81.41A9.09,9.09,0,0,0,2678.46-86.88Z" transform="translate(-2590.99 240.6)"/><path d="M2799.58,183c-.07,1.32.3,2.68-.15,3.94Z" transform="translate(-2590.99 240.6)"/><path d="M2814,185.89l-.2-2.26.12-.09c.07.13.21.26.21.4,0,.63,0,1.28,0,1.93,0,0,0,0,0,0Z" transform="translate(-2590.99 240.6)"/><path d="M2809.49,184.8l.25,1.58-.42.07v-1.58Z" transform="translate(-2590.99 240.6)"/><path class="cls-1" d="M2805.78,191.6,2786.38,165q-6.23-8.5-12.46-17-8.86-12-17.72-24c-7.46-10-14.93-20-22.3-30-4.73-6.4-9.31-12.92-14-19.33-6.14-8.38-12.38-16.68-18.54-25-4.71-6.4-9.34-12.9-14.06-19.3-5.33-7.27-10.82-14.46-16.2-21.74-4.7-6.34-9.34-12.73-14-19.16-4.52-6.15-9.07-12.29-13.59-18.44-2.58-3.51-5.1-7.06-7.68-10.55-4.49-6.1-9-12.17-13.53-18.28-3.47-4.71-6.88-9.48-10.36-14.2-3.2-4.42-6.54-8.8-9.79-13.2-2-2.66-3.91-5.31-5.78-8a2.42,2.42,0,0,1-.22-1.9c4.26-10.94,8.53-21.85,12.79-32.81,4-10.36,7.89-20.78,11.86-31.15,5-13,10-26.06,14.93-39.11q6.51-17.08,12.91-34.23c1.17-3.14,1.13-3.16,4.36-3.16h306.88a2.35,2.35,0,0,1,2.7,1.78c3.05,8.28,6.26,16.49,9.41,24.72l11.12,29c4.12,10.79,8.19,21.61,12.31,32.41q7,18.51,14.11,37c2,5.27,4.08,10.53,6.05,15.78a2.15,2.15,0,0,1-.25,1.68c-3.72,5.15-7.46,10.25-11.27,15.36s-7.7,10.56-11.55,15.79C2988-56,2983.52-50,2979.06-43.94q-5.25,7.13-10.48,14.26c-4.54,6.15-9.12,12.26-13.63,18.43-4.73,6.44-9.35,12.94-14.08,19.37-4.09,5.55-8.29,11-12.4,16.58-3.8,5.15-7.53,10.36-11.32,15.52-3.3,4.51-6.65,9-10,13.47-3.75,5.11-7.46,10.24-11.21,15.35s-7.38,10-11.06,15c-3.12,4.28-6.22,8.58-9.36,12.84-5.68,7.72-11.43,15.39-17.06,23.12s-11.25,15.48-16.91,23.2-11.15,15.08-16.71,22.64c-5.33,7.26-10.66,14.56-16,21.82C2807.94,189,2806.92,190.19,2805.78,191.6Zm0-21.67c1.65-2.15,3.2-4.12,4.71-6.16,5.62-7.69,11.18-15.4,16.81-23.08s11.37-15.32,17.06-23c6.13-8.32,12.22-16.66,18.35-25,4.76-6.45,9.6-12.86,14.3-19.32,3.89-5.31,7.69-10.71,11.59-16,5.33-7.23,10.73-14.37,16.06-21.6,6.94-9.42,13.86-18.92,20.74-28.34s13.94-18.78,20.88-28.18c5-6.77,9.94-13.53,14.93-20.3q8.85-12,17.74-24.1,11.1-15.09,22.12-30.27a3.52,3.52,0,0,0,.55-2.7c-2-5.64-4.31-11.13-6.45-16.7q-8.73-22.86-17.41-45.72-11.06-29-22.11-58.05a2,2,0,0,0-2.13-1.62H2813.91q-76.44,0-152.9-.08c-3.09,0-5.21.47-5.9,4a2.1,2.1,0,0,1-.24.5q-7,18.44-13.93,36.87-9.33,24.55-18.73,49.09-6,15.78-12.23,31.41a2.71,2.71,0,0,0,.4,2.91q3.28,4.41,6.56,8.81c3.65,4.89,7.33,9.73,10.95,14.66,4.36,5.92,8.67,11.88,13,17.81q5.46,7.47,10.93,14.92l11.48,15.63c4.1,5.55,8.22,11.07,12.31,16.63,3.9,5.31,7.76,10.65,11.66,16,4.09,5.56,8.23,11.08,12.34,16.64,3.88,5.27,7.73,10.57,11.61,15.78,4.09,5.56,8.21,11.1,12.29,16.66,3,4,5.9,8.16,8.89,12.2,5.33,7.21,10.66,14.36,16,21.56,4.07,5.49,8,11.06,12.1,16.56,4.81,6.58,9.68,13.13,14.51,19.72,3.91,5.33,7.77,10.69,11.72,16s8.12,10.85,12.15,16.29c2.29,3.2,4.55,6.34,6.95,9.62Z" transform="translate(-2590.99 240.6)"/></svg>