<svg id="Layer_1" data-name="Layer 1" xmlns="http://www.w3.org/2000/svg" viewBox="0 0 1009.55 781.81"><defs><style>.cls-1{fill:#fff;}.cls-2{stroke:#231f20;stroke-miterlimit:10;stroke-width:10px;}</style></defs><path class="cls-1" d="M1064.27,709q-33.91-21.09-67.77-42.29c-.65-.4-1.27-.85-2.19-1.48l39-24.53v2.94c0,7.25,0,14.5,0,21.75a3,3,0,0,0,1.55,3.05c9.91,6,19.76,12.17,29.64,18.26a12.7,12.7,0,0,0,1.48.7v-107c-.78.42-1.34.71-1.88,1q-51.12,31.3-102.26,62.57a3.35,3.35,0,0,0-1.77,3.38q.11,17.82,0,35.65a3.86,3.86,0,0,0,2.12,3.86q34.7,21,69.33,42.17a3.32,3.32,0,0,1,1.86,3.31c-.06,17.57,0,35.13,0,52.7,0,.72-.06,1.43-.11,2.39-.57-.28-1-.41-1.3-.63-12-7.58-24.06-15.18-36.13-22.7-1.19-.75-1.21-1.65-1.21-2.79,0-10.39,0-20.78,0-31.17a3.21,3.21,0,0,0-1.81-3.32c-5.8-3.28-11.53-6.71-17.28-10.08l-15.32-9c0,.83-.1,1.26-.1,1.69q0,36.09,0,72.2a2.84,2.84,0,0,0,1.71,2.73q51.22,31.33,102.44,62.7c.52.32,1.09.57,1.91,1v-2.5q0-66.62,0-133.21A3.38,3.38,0,0,0,1064.27,709Z" transform="translate(-272.96 -580.39)"/><path d="M1091.45,858.09V590.44c.65.33,1.21.58,1.73.89q52.07,31.36,104.15,62.71a3.17,3.17,0,0,1,1.8,3.12q-.09,27.8,0,55.6a3,3,0,0,1-1.63,3c-4.64,2.68-9.21,5.49-14.13,8.44.77.52,1.32.92,1.9,1.26,4.09,2.47,8.19,4.95,12.31,7.37a2.63,2.63,0,0,1,1.55,2.59q-.07,28.14,0,56.28a2.66,2.66,0,0,1-1.51,2.61q-52.27,31.44-104.52,62.94C1092.62,857.53,1092.11,857.75,1091.45,858.09Zm32-60.61a5.17,5.17,0,0,0,.79-.29c12.79-7.71,25.59-15.4,38.34-23.19a3.42,3.42,0,0,0,1.12-2.5c.09-7.93,0-15.85.09-23.77a3.27,3.27,0,0,0-1.88-3.29c-10.47-6.21-20.9-12.51-31.34-18.79-.65-.39-1.29-.83-2.17-1.39.89-.57,1.52-1,2.18-1.4,10.51-6.31,21-12.64,31.53-18.9a2.93,2.93,0,0,0,1.68-3q-.12-11.89,0-23.77a3.13,3.13,0,0,0-1.73-3.15c-11-6.54-21.87-13.15-32.8-19.74-1.85-1.12-3.71-2.22-5.81-3.48V759" transform="translate(-272.96 -580.39)"/><path d="M961.28,717.89l15.32,9c5.75,3.38,11.47,6.8,17.27,10.09a3.22,3.22,0,0,1,1.82,3.32c-.07,10.39,0,20.78-.05,31.17,0,1.14,0,2,1.22,2.78,12.07,7.52,24.08,15.13,36.12,22.7a11.78,11.78,0,0,0,1.31.63c0-1,.1-1.67.1-2.39,0-17.56,0-35.13,0-52.69a3.36,3.36,0,0,0-1.87-3.32q-34.68-21-69.32-42.17a3.83,3.83,0,0,1-2.12-3.85c.09-11.89.07-23.77,0-35.66a3.35,3.35,0,0,1,1.76-3.38q51.17-31.23,102.27-62.56c.53-.33,1.1-.61,1.87-1v107a14.38,14.38,0,0,1-1.47-.69c-9.88-6.09-19.74-12.23-29.64-18.27a3,3,0,0,1-1.56-3.05c.06-7.25,0-14.5,0-21.75v-2.94l-39,24.54c.92.62,1.54,1.07,2.19,1.48q33.89,21.15,67.77,42.28a3.41,3.41,0,0,1,1.85,3.34q-.08,66.6,0,133.2v2.51c-.83-.43-1.39-.68-1.92-1q-51.21-31.35-102.43-62.69a2.81,2.81,0,0,1-1.71-2.73q.08-36.1,0-72.21C961.18,719.14,961.23,718.71,961.28,717.89Z" transform="translate(-272.96 -580.39)"/><path d="M304.32,1355.55v-7.74c.37.11.38.11.39,3.53,0,1.41,0,2.82,0,4.22Z" transform="translate(-272.96 -580.39)"/><path d="M273,1361.93h5.14v.27H273Z" transform="translate(-272.96 -580.39)"/><path d="M727.55,1353.56c3.79.25,3.87.17,4.32-3.7-.18,1.17,0,2.78-.63,3.39s-2.38.58-3.62.82Z" transform="translate(-272.96 -580.39)"/><path d="M755.49,1349.91c-.35-1.58,1-3.73-1.68-4.52C755.83,1345.64,756.23,1346.76,755.49,1349.91Z" transform="translate(-272.96 -580.39)"/><path d="M367.13,1356.41v-9.35h.14v9.32Z" transform="translate(-272.96 -580.39)"/><path d="M369.3,1355.51v-7.11h.24v7.11Z" transform="translate(-272.96 -580.39)"/><path d="M302.77,1343.35v8.33h-.12v-8.33Z" transform="translate(-272.96 -580.39)"/><path d="M760.37,1346.46c-.16,2.38.72,4.83-.36,7.11C760.13,1351.18,760.25,1348.82,760.37,1346.46Z" transform="translate(-272.96 -580.39)"/><path d="M288.3,1347.4v5.41H288v-5.42Z" transform="translate(-272.96 -580.39)"/><path d="M795,1351.63l-.49-4.07.28-.16c.18.23.51.47.52.71,0,1.15,0,2.32-.07,3.48,0,0-.08.07-.12.07A.22.22,0,0,1,795,1351.63Z" transform="translate(-272.96 -580.39)"/><path d="M735.76,1353.72c.28-1.68.56-3.34.84-5C736.32,1350.43,737.47,1352.45,735.76,1353.72Z" transform="translate(-272.96 -580.39)"/><path d="M726,1348.62l.61,1.8-1-.35c-.09.93-.19,1.85-.28,2.77l-.4-.08c.28-1.42.55-2.84.83-4.26Z" transform="translate(-272.96 -580.39)"/><path d="M726.8,1345.05c-2.9,1.18-3.54,1.1-4.21-.46C723.79,1346.9,725.4,1344.69,726.8,1345.05Z" transform="translate(-272.96 -580.39)"/><path d="M709.67,1352V1347h.15V1352Z" transform="translate(-272.96 -580.39)"/><path d="M339.68,1351v3.57h-.19V1351Z" transform="translate(-272.96 -580.39)"/><path d="M405.17,1354.9l-1.69,1.54,1.19-3.25Z" transform="translate(-272.96 -580.39)"/><path d="M282.45,1337.23l3.21,2.37-.33.41-3.1-2.53Z" transform="translate(-272.96 -580.39)"/><path d="M784.09,1349.67l.6,2.84-1,.13v-2.85Z" transform="translate(-272.96 -580.39)"/><path d="M357.51,1343.79c1.22,2,3.87-.16,5.19,1.56C361.37,1343.66,358.64,1346.05,357.51,1343.79Z" transform="translate(-272.96 -580.39)"/><path d="M712.14,1352c-.9-1.93-.68-4,0-4.36Z" transform="translate(-272.96 -580.39)"/><path class="cls-2" d="M1080.69,964.92l-18.19-23.57q-5.84-7.54-11.69-15.07-8.31-10.66-16.62-21.3c-7-8.87-14-17.71-20.91-26.6-4.44-5.68-8.74-11.46-13.17-17.15-5.76-7.43-11.61-14.79-17.39-22.21-4.42-5.68-8.76-11.44-13.19-17.12-5-6.45-10.15-12.83-15.19-19.28-4.41-5.63-8.76-11.3-13.15-17-4.24-5.46-8.51-10.9-12.75-16.36-2.42-3.11-4.78-6.26-7.2-9.36-4.21-5.41-8.47-10.79-12.69-16.21-3.26-4.18-6.46-8.41-9.72-12.6-3-3.92-6.13-7.8-9.18-11.71-1.84-2.36-3.67-4.71-5.42-7.13a2,2,0,0,1-.21-1.68c4-9.71,8-19.39,12-29.11,3.75-9.19,7.4-18.43,11.12-27.63,4.67-11.57,9.4-23.12,14-34.69q6.11-15.16,12.11-30.37c1.1-2.78,1.06-2.8,4.09-2.8h213.05q37.39,0,74.78,0c1.27,0,2,.21,2.53,1.58,2.86,7.34,5.87,14.63,8.83,21.93q5.22,12.86,10.43,25.7c3.86,9.58,7.68,19.17,11.54,28.75q6.6,16.42,13.24,32.83c1.89,4.68,3.82,9.34,5.67,14a1.82,1.82,0,0,1-.23,1.49c-3.49,4.57-7,9.09-10.57,13.63s-7.22,9.36-10.84,14c-4.17,5.38-8.37,10.73-12.55,16.1-3.29,4.22-6.55,8.44-9.83,12.65-4.26,5.46-8.56,10.88-12.79,16.35-4.43,5.71-8.77,11.48-13.2,17.18-3.84,4.93-7.78,9.79-11.63,14.71-3.57,4.57-7.07,9.19-10.62,13.77-3.1,4-6.24,8-9.35,11.95-3.52,4.53-7,9.08-10.52,13.61s-6.92,8.88-10.37,13.33c-2.93,3.79-5.83,7.61-8.78,11.39-5.33,6.84-10.72,13.65-16,20.5s-10.55,13.74-15.86,20.58-10.46,13.38-15.67,20.09c-5,6.44-10,12.91-15,19.35C1082.72,962.64,1081.76,963.67,1080.69,964.92Zm0-19.22c1.55-1.91,3-3.66,4.42-5.47,5.27-6.82,10.49-13.66,15.77-20.47s10.66-13.59,16-20.4c5.75-7.38,11.46-14.78,17.21-22.15,4.46-5.72,9-11.41,13.41-17.14,3.65-4.71,7.21-9.5,10.87-14.21,5-6.41,10.07-12.75,15.06-19.16,6.51-8.36,13-16.78,19.46-25.14s13.07-16.66,19.58-25c4.68-6,9.32-12,14-18q8.31-10.69,16.64-21.38,10.41-13.39,20.75-26.85a3,3,0,0,0,.52-2.4c-1.93-5-4.05-9.87-6.05-14.81q-8.19-20.28-16.33-40.56-10.38-25.74-20.74-51.49a1.84,1.84,0,0,0-2-1.44c-9.38,0-18.76,0-28.14,0H1088.32q-71.7,0-143.41-.07c-2.9,0-4.89.42-5.53,3.51a2.13,2.13,0,0,1-.23.45q-6.52,16.35-13.06,32.7-8.76,21.79-17.57,43.55-5.65,14-11.47,27.86a2.3,2.3,0,0,0,.37,2.58q3.08,3.91,6.16,7.82c3.42,4.33,6.87,8.63,10.27,13,4.09,5.25,8.13,10.54,12.2,15.8q5.12,6.63,10.25,13.23,5.38,6.93,10.77,13.87c3.84,4.92,7.71,9.82,11.54,14.75,3.66,4.71,7.28,9.45,10.94,14.16,3.84,4.93,7.72,9.83,11.57,14.76,3.64,4.67,7.25,9.37,10.89,14,3.84,4.93,7.7,9.84,11.53,14.77,2.8,3.6,5.53,7.24,8.34,10.83,5,6.39,10,12.73,15,19.12,3.81,4.87,7.54,9.81,11.34,14.69,4.52,5.84,9.08,11.65,13.61,17.49,3.67,4.73,7.29,9.49,11,14.21s7.61,9.63,11.39,14.45C1076.37,940,1078.49,942.79,1080.74,945.7Z" transform="translate(-272.96 -580.39)"/></svg>