<svg id="Layer_1" data-name="Layer 1" xmlns="http://www.w3.org/2000/svg" viewBox="0 0 5805.53 5261.04">
  <defs>
    <style>
      .cls-1 {
        stroke: #231f20;
        stroke-miterlimit: 10;
        stroke-width: 10px;
      }
    </style>
  </defs>
  <path d="M1060.76-1331.08V-5038c9.57,4.57,17.82,8,25.47,12.32Q1853-4591.33,2620-4157.14c17.52,7.82,28.07,25,26.51,43.21q-1.33,385,0,770.05c2,17.2-7.59,33.75-24,41.55-68.33,37.12-135.62,76-208.08,116.89,11.34,7.2,19.44,12.74,28,17.45,60.23,34.21,120.61,68.56,181.28,102.08,14.87,6.25,24,20.58,22.83,35.87q-1,389.73,0,779.47c1.26,15.21-7.58,29.59-22.24,36.14Q1854.49-1779,1085.06-1342.72C1078-1338.84,1070.48-1335.79,1060.76-1331.08ZM1532-2170.52a78.83,78.83,0,0,0,11.64-4c188.34-106.78,376.84-213.29,564.6-321.18a46.18,46.18,0,0,0,16.49-34.62c1.32-109.83,0-219.52,1.32-329.21,2-19.18-9.08-37.47-27.68-45.57-154.18-86-307.78-173.26-461.52-260.24-9.57-5.4-19-11.49-31.95-19.25,13.1-7.89,22.38-13.85,32.1-19.39,154.77-87.39,309.25-175.06,464.31-261.76,16.93-7.36,26.92-24.13,24.75-41.55q-1.77-164.67,0-329.21c2.11-18.14-8.07-35.58-25.48-43.63-162-90.58-322.06-182.12-483-273.39-27.24-15.52-54.63-30.75-85.56-48.2v1498.28" transform="translate(2000.3 5104.9)"/>
  <path d="M-856.14-3272.83l225.61,124.65c84.67,46.81,168.9,94.18,254.32,139.74,18.58,8.25,29.4,26.81,26.8,46-1,143.9,0,287.8-.74,431.7,0,15.79,0,27.7,18,38.51,177.74,104.15,354.6,209.54,531.9,314.39a178.16,178.16,0,0,0,19.3,8.72c0-13.85,1.47-23.13,1.47-33.1V-2932c1.84-19.21-9.11-37.5-27.54-46Q-317.76-3268.82-827.86-3562c-21.3-9.83-33.77-31.14-31.22-53.32,1.32-164.67,1-329.21,0-493.88-2.56-19.16,7.76-37.8,25.92-46.81q753.53-432.54,1506-866.45c7.81-4.57,16.2-8.45,27.54-13.85V-3554.4a218.86,218.86,0,0,1-21.64-9.55c-145.5-84.35-290.7-169.39-436.49-253-16.29-8.18-25.45-25-23-42.24.88-100.41,0-200.83,0-301.24v-40.72L-355-3861.31c13.55,8.59,22.68,14.82,32.25,20.5q499.06,292.92,998,585.57c18.27,8.74,29,27,27.24,46.26q-1.17,922.4,0,1844.8v34.76c-12.22-6-20.47-9.42-28.27-13.85Q-79.93-1777.46-834.2-2211.52c-16-6.38-26.06-21.48-25.18-37.81q1.18-500,0-1000.09C-857.61-3255.52-856.88-3261.47-856.14-3272.83Z" transform="translate(2000.3 5104.9)"/>
  <path d="M816.67,43.08c-.92,16.22,4.16,32.91-2.08,48.45C815.29,75.24,816,59.16,816.67,43.08Z" transform="translate(2000.3 5104.9)"/>
  <path d="M1016.48,78.31l-2.83-27.74,1.61-1.09c1,1.57,3,3.21,3,4.84,0,7.84,0,15.81-.41,23.72,0,0-.46.47-.69.47A1.16,1.16,0,0,1,1016.48,78.31Z" transform="translate(2000.3 5104.9)"/>
  <path d="M953.53,65,957,84.3l-5.77.89V65.77Z" transform="translate(2000.3 5104.9)"/>
  <path class="cls-1" d="M902.3,148.5,634.44-177.95q-86-104.42-172.15-208.71-122.37-147.64-244.75-295C114.46-804.51,11.38-926.95-90.38-1050.07c-65.38-78.67-128.71-158.72-193.94-237.53-84.83-102.9-171-204.83-256.09-307.6-65.09-78.67-129-158.44-194.24-237.11-73.63-89.33-149.47-177.69-223.69-267-64.94-78-129-156.5-193.65-235.44-62.43-75.62-125.31-151-187.75-226.59-35.64-43.07-70.39-86.7-106-129.63-62-74.93-124.73-149.44-186.88-224.51-48-57.89-95.13-116.47-143.13-174.5C-1820-3144.31-1866-3198-1911-3252.2c-27.09-32.68-54-65.23-79.81-98.75a26.26,26.26,0,0,1-3.1-23.26c58.91-134.49,117.81-268.55,176.72-403.17,55.22-127.28,109-255.25,163.75-382.67,68.77-160.25,138.43-320.21,206.17-480.45q90-210,178.33-420.62c16.2-38.51,15.61-38.78,60.23-38.78H3029.94c18.7,0,29.45,2.9,37.25,21.88,42.12,101.66,86.45,202.62,130,303.73q76.88,178.09,153.6,355.94c56.84,132.68,113.1,265.5,169.94,398.18q97.18,227.41,195,454.69c27.83,64.82,56.25,129.36,83.5,193.9a23.91,23.91,0,0,1-3.39,20.63c-51.39,63.3-103.08,125.9-155.65,188.78s-106.32,129.63-159.63,193.9c-61.41,74.51-123.26,148.6-184.82,223-48.45,58.44-96.45,116.89-144.75,175.2-62.74,75.62-126.06,150.69-188.35,226.44-65.24,79.09-129.15,159-194.38,237.94-56.55,68.28-114.57,135.59-171.27,203.74-52.57,63.29-104.11,127.28-156.39,190.71-45.65,55.4-91.89,110.8-137.69,165.5C2251.08-1483,2199.83-1420,2148-1357.26s-101.9,123-152.71,184.62c-43.15,52.49-85.85,105.4-129.29,157.75-78.49,94.73-157.87,189-235.62,283.92s-155.36,190.3-233.56,285-154,185.31-230.75,278.24c-73.64,89.2-147.27,178.81-220.9,268C932.2,116.92,918.06,131.18,902.3,148.5Zm0-266.2c22.83-26.45,44.18-50.69,65.09-75.76C1045-287.91,1121.87-382.65,1199.63-477s157-188.22,235.61-282.54c84.68-102.21,168.76-204.7,253.44-306.77,65.68-79.22,132.53-158,197.48-237.39,53.75-65.23,106.17-131.57,160.07-196.81,73.63-88.77,148.29-176.58,221.78-265.36,95.86-115.78,191.43-232.4,286.56-348.19s192.47-230.73,288.34-346.24c68.92-83.1,137.25-166.2,206.17-249.3q122.37-148.05,245-296.11,153.3-185.45,305.57-371.87a39.63,39.63,0,0,0,7.65-33.24c-28.42-69.25-59.64-136.69-89.09-205.11q-120.6-280.87-240.48-561.75-152.85-356.51-305.42-713.13c-2.93-12.76-15.65-21.37-29.45-19.94H1014.66q-1055.85,0-2111.87-1c-42.7,0-72,5.81-81.43,48.61a28.54,28.54,0,0,1-3.39,6.23q-96,226.44-192.32,452.89-129,301.78-258.74,603.16-83.21,193.9-168.91,385.86a30.4,30.4,0,0,0,5.45,35.73l90.71,108.31c50.37,60,101.17,119.52,151.24,180,60.23,72.71,119.72,146,179.66,218.82q75.39,91.83,150.94,183.24l158.6,192.09c56.55,68.14,113.54,136,169.94,204.29,53.9,65.23,107.21,130.88,161.1,196.11C-677.81-2028-620.67-1960.14-564-1891.86c53.6,64.67,106.76,129.77,160.36,193.89,56.55,68.28,113.39,136.29,169.8,204.57,41.23,49.86,81.43,100.27,122.81,150,73.63,88.5,147.26,176.31,220.89,264.81,56.11,67.45,111,135.87,167,203.45C343.45-794.26,410.6-713.8,477.31-632.91c54,65.51,107.35,131.43,162,196.8S751.36-302.73,807-236c31.66,39.34,62.88,78,96,118.28Z" transform="translate(2000.3 5104.9)"/>
</svg>
