<svg xmlns="http://www.w3.org/2000/svg" viewBox="0 0 368.9131 395.985"><defs><style>.a{fill:none;}</style></defs><path class="a" d="M812.7953,340.2064H903.517v5.9308c.0007,41.652-.221,83.3058.1143,124.9551.13,16.0791-5.9657,27.9689-20.04,35.7456a22.3911,22.3911,0,0,0-2.49,1.6483c-.2329.1728-.3069.56-.6573,1.2486,2.2667,1.5231,4.574,3.0745,6.8824,4.6244,10.4308,7.0032,16.1086,16.738,16.1463,29.3418q.16,53.4807-.0278,106.962a9.2543,9.2543,0,0,1-1.3661,5.1232q-21.3525,29.5662-42.9474,58.9572a7.2974,7.2974,0,0,1-1.3365,1.0606Q835.8024,685.7,813.9426,655.63a9.2651,9.2651,0,0,1-1.305-5.1447q-.09-153.6958-.0474-307.3917C812.59,342.2893,812.7012,341.4852,812.7953,340.2064ZM843.8531,525.31a10.5863,10.5863,0,0,0-.4287,1.87q-.0318,57.1786.0008,114.3572a5.9857,5.9857,0,0,0,.7977,3.2855c4.4088,6.2189,8.9486,12.3449,13.8627,19.0693,4.36-5.9754,8.5342-11.3406,12.2655-16.9978a14.0939,14.0939,0,0,0,2.3453-7.2542c.1444-36.2876.101-72.576.0826-108.8642-.0009-1.7592-.18-3.5183-.2868-5.4656Zm28.63-31.2263V371.1915H843.6561V494.0839Z" transform="translate(-664.7768 -340.1488)"/><path class="a" d="M920.5523,630.3752V340.4639c1.57-.1247,2.8569-.3178,4.1433-.315,15.33.0327,30.6617-.02,45.9865.282a8.7607,8.7607,0,0,1,6.1334,2.9747c16.2556,22.3476,32.2913,44.8553,48.3464,67.3484,1.1221,1.572,1.9693,3.34,3.1126,5.3063l-5.1045.4067c4.7469,3.3673,1.6185,7.0588,1.4834,10.5286-.3174,8.1523-.0366,16.3261-.1628,24.4886a77.9781,77.9781,0,0,1-.9758,8.1028l4.3853.9608q-.0171.5125-.0346,1.0251c-1.7253.1048-3.45.2834-5.1763.3033-22.1586.2552-44.3176.6284-66.4761.61-4.5648-.0038-5.8929,1.1351-5.8717,5.7789q.265,57.9828-.0337,115.967a16.211,16.211,0,0,1-2.7908,8.6389C938.9891,605.1352,930.1119,617.1565,920.5523,630.3752Zm30.2629-259.3284a13.3471,13.3471,0,0,0-.335,2.0489c-.024,18.3129.0523,36.6266-.1,54.9383-.0316,3.7943,1.7355,4.3193,4.8909,4.3018,13.6518-.076,27.3046.02,40.9571.0516,2.0843.0048,4.1687.0006,7.3834.0006-1.5406-2.3465-2.36-3.7052-3.2857-4.9874-12.4605-17.2624-25.1545-34.3627-37.2671-51.8655C959.6546,370.6166,955.9856,369.8274,950.8152,371.0468Z" transform="translate(-664.7768 -340.1488)"/><path class="a" d="M712.82,432.3712H767.764c0,7.8743-.3125,15.2159.0918,22.5179.3719,6.7163.3664,7.0011-6.2241,7.0506-27.3259.2054-54.653.3634-81.9751.82-4.5251.0757-7.3146-1.3037-9.9006-4.9735-6.556-9.303-6.7362-9.1911.0441-18.5443q34.7283-47.9069,69.51-95.7746c.9071-1.2467,2.3839-2.9047,3.637-2.9413,8.7632-.2563,17.5375-.1356,26.286-.1356-1.8162,10.4778-3.6115,20.1075-1.264,30.0877.66,2.8044-1.1545,6.0989-1.2062,9.1791-.1763,10.4943-.0014,20.9941-.11,31.49-.0448,4.3315,2.8643,5.6647,6.1728,6.6266,1.3569.3945,2.8544.3048,4.2688.5636-14.0567.5212-11.049,1.4935-11.25-10.4353-.18-10.661.0538-21.3288-.1176-31.99-.0325-2.0167-.8318-5.5749-1.7545-5.7391-3.052-.543-6.4822-1.1557-8.8958,2.4687-4.6125,6.9264-9.6138,13.5944-14.4695,20.3583Q728.23,410.2421,715.845,427.4781C714.9991,428.659,714.3081,429.9509,712.82,432.3712Z" transform="translate(-664.7768 -340.1488)"/><path class="a" d="M682.7128,475.3069c12.5638,0,24.1575-.1053,35.7437.14,1.3738.029,3.0353,1.733,4.01,3.0654,13.0553,17.85,25.503,36.1783,39.2718,53.4552,4.7678,5.9827,5.9966,11.5362,5.8407,18.4669-.2318,10.2954.0692,20.6018-.0138,30.9022-.0169,2.0971-.7305,4.1886-1.414,7.8358Z" transform="translate(-664.7768 -340.1488)"/><path class="a" d="M964.5959,568.2717c0-10.2421.7993-20.5623-.1929-30.7074-1.384-14.151,2.47-25.7741,11.9678-36.3261,6.4287-7.1422,11.4346-15.5531,17.29-23.234a7.1674,7.1674,0,0,1,4.723-2.7212c9.9928-.2466,19.9947-.12,29.9937-.1185,1.3267,0,2.6534,0,5.3123,0l-68.053,93.4559Z" transform="translate(-664.7768 -340.1488)"/><path class="a" d="M678.9614,719.4229a7.6827,7.6827,0,0,0-1.1845-1.0362,5.555,5.555,0,0,0-1.254-.6592,6.7874,6.7874,0,0,0-1.3935-.35,11.2774,11.2774,0,0,0-1.63-.1084q-3.372,0-4.8911,1.252a4.0882,4.0882,0,0,0-1.5186,3.3232,3.3492,3.3492,0,0,0,.6412,2.166,4.3088,4.3088,0,0,0,2.02,1.2647,27.9312,27.9312,0,0,0,3.581.9014,29.5521,29.5521,0,0,1,3.8179.9824,5.903,5.903,0,0,1,2.4941,1.5068,3.7688,3.7688,0,0,1,.878,2.65,4.3615,4.3615,0,0,1-.4737,2.0586,4.0871,4.0871,0,0,1-1.3794,1.5068,6.9394,6.9394,0,0,1-2.2016.9287,12.0346,12.0346,0,0,1-2.9121.3233,12.6038,12.6038,0,0,1-2.94-.3233,9.65,9.65,0,0,1-2.5219-.9824,11.4549,11.4549,0,0,1-2.23-1.6543l.4179-.3506a10.128,10.128,0,0,0,1.5606,1.292,8.7172,8.7172,0,0,0,1.7139.8877,9.4215,9.4215,0,0,0,1.9086.5117,13.3471,13.3471,0,0,0,2.1182.1612,8.7243,8.7243,0,0,0,4.668-1.0762,3.5367,3.5367,0,0,0,1.7138-3.2021,3.5885,3.5885,0,0,0-.6967-2.3008,4.89,4.89,0,0,0-2.16-1.4258,22.85,22.85,0,0,0-3.7485-.9824,29.8492,29.8492,0,0,1-3.7061-.9014,5.14,5.14,0,0,1-2.3271-1.3994,3.6367,3.6367,0,0,1-.794-2.4893,4.5821,4.5821,0,0,1,.85-2.8125,5.2129,5.2129,0,0,1,2.4107-1.7353,10.2734,10.2734,0,0,1,3.6508-.5918,10.775,10.775,0,0,1,2.2989.2285,6.8167,6.8167,0,0,1,1.9228.7266,7.0437,7.0437,0,0,1,1.6582,1.332Z" transform="translate(-664.7768 -340.1488)"/><path class="a" d="M690.3594,716.8936h.5014l8.6114,19.1054h-.6133l-3.0767-6.8349H685.42l-3.0869,6.8349H681.72ZM695.54,728.626l-4.93-10.9522-4.9458,10.9522Z" transform="translate(-664.7768 -340.1488)"/><path class="a" d="M717.6133,716.8936V735.999h-.5576V726.5H703.3174v9.499H702.76V716.8936h.5576v9.0683h13.7383v-9.0683Z" transform="translate(-664.7768 -340.1488)"/><path class="a" d="M723.1309,735.999V716.8936h.5576V735.999Z" transform="translate(-664.7768 -340.1488)"/><path class="a" d="M743.3066,731.0479a4.7216,4.7216,0,0,1-.6689,2.4482,5.22,5.22,0,0,1-1.7837,1.8164,4.6326,4.6326,0,0,1-2.48.6865h-9.1684V716.8936h8.75a4.0929,4.0929,0,0,1,2.4106.7128,4.7255,4.7255,0,0,1,1.56,1.83,5.2514,5.2514,0,0,1,.5435,2.3272,4.8852,4.8852,0,0,1-.7666,2.664,4.53,4.53,0,0,1-2.0762,1.7764,4.8723,4.8723,0,0,1,2.69,1.8428A4.9861,4.9861,0,0,1,743.3066,731.0479Zm-13.5434-13.6163v8.6651h8.0259a3.6379,3.6379,0,0,0,2.1455-.6465,4.6374,4.6374,0,0,0,1.4492-1.6416,4.3069,4.3069,0,0,0,.5293-2.0449,4.6366,4.6366,0,0,0-.5015-2.14,4.1843,4.1843,0,0,0-1.3935-1.5869,3.5785,3.5785,0,0,0-2.062-.6055Zm12.9858,13.6163a4.43,4.43,0,0,0-.5429-2.1534,4.5638,4.5638,0,0,0-1.4913-1.6279,3.7826,3.7826,0,0,0-2.1455-.6318h-8.8061v8.8261h8.6108a3.9719,3.9719,0,0,0,2.2154-.6455,4.877,4.877,0,0,0,1.5747-1.6552A4.1514,4.1514,0,0,0,742.749,731.0479Z" transform="translate(-664.7768 -340.1488)"/><path class="a" d="M768.8325,731.0479a4.7216,4.7216,0,0,1-.6689,2.4482,5.2205,5.2205,0,0,1-1.7837,1.8164,4.6326,4.6326,0,0,1-2.48.6865h-9.1685V716.8936h8.75a4.0932,4.0932,0,0,1,2.4107.7128,4.7255,4.7255,0,0,1,1.56,1.83,5.2528,5.2528,0,0,1,.5435,2.3272,4.8852,4.8852,0,0,1-.7666,2.664,4.53,4.53,0,0,1-2.0762,1.7764,4.8723,4.8723,0,0,1,2.6895,1.8428A4.9868,4.9868,0,0,1,768.8325,731.0479Zm-13.5434-13.6163v8.6651h8.0258a3.6377,3.6377,0,0,0,2.1455-.6465,4.6386,4.6386,0,0,0,1.4493-1.6416,4.3069,4.3069,0,0,0,.5293-2.0449,4.6366,4.6366,0,0,0-.5015-2.14,4.1837,4.1837,0,0,0-1.3936-1.5869,3.578,3.578,0,0,0-2.062-.6055Zm12.9858,13.6163a4.4293,4.4293,0,0,0-.543-2.1534,4.5636,4.5636,0,0,0-1.4912-1.6279,3.7826,3.7826,0,0,0-2.1455-.6318h-8.8061v8.8261H763.9a3.9714,3.9714,0,0,0,2.2153-.6455A4.8751,4.8751,0,0,0,767.69,733.16,4.1505,4.1505,0,0,0,768.2749,731.0479Z" transform="translate(-664.7768 -340.1488)"/><path class="a" d="M787.8384,716.8936V735.999h-.5576V726.5H773.5425v9.499h-.5576V716.8936h.5576v9.0683h13.7383v-9.0683Z" transform="translate(-664.7768 -340.1488)"/><path class="a" d="M799.7373,716.8936h.5015L808.85,735.999h-.6133l-3.0766-6.8349H794.7983l-3.0869,6.8349h-.6133Zm5.1807,11.7324-4.93-10.9522L795.042,728.626Z" transform="translate(-664.7768 -340.1488)"/><path class="a" d="M812.1382,735.999V716.8936h8.0537a5.0454,5.0454,0,0,1,2.2432.497,5.6326,5.6326,0,0,1,1.7558,1.3321,6.503,6.503,0,0,1,1.1568,1.8574,5.503,5.503,0,0,1,.4179,2.0986,6.0619,6.0619,0,0,1-.6411,2.7578,5.851,5.851,0,0,1-1.7695,2.1133,4.9233,4.9233,0,0,1-2.6333.9414l5.0161,7.5078h-.669l-5.0161-7.5078h-7.3569v7.5078Zm.5576-8.0459h7.6914a4.3192,4.3192,0,0,0,2.5776-.7666,5.1422,5.1422,0,0,0,1.6582-1.9785,5.7407,5.7407,0,0,0,.585-2.5293,5.1849,5.1849,0,0,0-.6689-2.57,5.4359,5.4359,0,0,0-1.8111-1.9375,4.57,4.57,0,0,0-2.5361-.7393h-7.4961Z" transform="translate(-664.7768 -340.1488)"/><path class="a" d="M836.1045,716.8936h.5015l8.6113,19.1054h-.6133l-3.0767-6.8349H831.1655l-3.0869,6.8349h-.6133Zm5.1807,11.7324-4.93-10.9522-4.9458,10.9522Z" transform="translate(-664.7768 -340.1488)"/><path class="a" d="M846.5825,734.5186a6.8368,6.8368,0,0,0,1.7974.7939,7.9441,7.9441,0,0,0,2.188.2832,5.6571,5.6571,0,0,0,2.8423-.6143,3.8044,3.8044,0,0,0,1.5883-1.8007,9.3142,9.3142,0,0,0,.6968-2.8672q.167-1.6816.167-3.7891v-9.6308h.5576v9.6328a35.9178,35.9178,0,0,1-.1953,3.9238,9.9467,9.9467,0,0,1-.78,3.042,4.2438,4.2438,0,0,1-1.7553,1.9609,6.1847,6.1847,0,0,1-3.1211.6807,8.6847,8.6847,0,0,1-2.3413-.2959,6.8031,6.8031,0,0,1-1.9507-.8887Z" transform="translate(-664.7768 -340.1488)"/><path class="a" d="M868.96,735.999V716.8936h8.0537a5.0447,5.0447,0,0,1,2.2431.497,5.6318,5.6318,0,0,1,1.7559,1.3321,6.5,6.5,0,0,1,1.1567,1.8574,5.5012,5.5012,0,0,1,.418,2.0986,6.0855,6.0855,0,0,1-.6831,2.8125,5.84,5.84,0,0,1-1.8809,2.166,4.8053,4.8053,0,0,1-2.8144.834h-7.6914v7.5078Zm.5576-8.0459h7.6914a4.3221,4.3221,0,0,0,2.5913-.78,5.0891,5.0891,0,0,0,1.6582-1.9913,5.8031,5.8031,0,0,0,.5713-2.5029,5.186,5.186,0,0,0-.6689-2.57,5.4368,5.4368,0,0,0-1.8111-1.9375,4.57,4.57,0,0,0-2.5361-.7393h-7.4961Z" transform="translate(-664.7768 -340.1488)"/><path class="a" d="M891.3369,716.8936h.5015L900.45,735.999h-.6133l-3.0766-6.8349H886.3979l-3.0869,6.8349h-.6132Zm5.1807,11.7324-4.93-10.9522-4.9458,10.9522Z" transform="translate(-664.7768 -340.1488)"/><path class="a" d="M903.7373,735.999V716.8936h8.0537a5.0451,5.0451,0,0,1,2.2432.497,5.6314,5.6314,0,0,1,1.7558,1.3321,6.5008,6.5008,0,0,1,1.1568,1.8574,5.503,5.503,0,0,1,.4179,2.0986,6.0619,6.0619,0,0,1-.6411,2.7578,5.851,5.851,0,0,1-1.7695,2.1133,4.923,4.923,0,0,1-2.6333.9414l5.0161,7.5078h-.6689l-5.0161-7.5078h-7.357v7.5078Zm.5576-8.0459h7.6914a4.32,4.32,0,0,0,2.5777-.7666,5.1439,5.1439,0,0,0,1.6582-1.9785,5.742,5.742,0,0,0,.5849-2.5293,5.1849,5.1849,0,0,0-.6689-2.57,5.4359,5.4359,0,0,0-1.8111-1.9375,4.57,4.57,0,0,0-2.5361-.7393h-7.4961Z" transform="translate(-664.7768 -340.1488)"/><path class="a" d="M940.188,735.999V718.0771L931.41,732.2314h-.4463l-8.7779-14.1543V735.999h-.5576V716.8936h.4458l9.1128,14.6923L940.3,716.8936h.4458V735.999Z" transform="translate(-664.7768 -340.1488)"/><path class="a" d="M946.2627,735.999V716.8936h.5576V735.999Z" transform="translate(-664.7768 -340.1488)"/><path class="a" d="M952.895,717.9424V735.999h-.5576V716.8936h.418l15.1313,18.3252V716.8936h.5586V735.999h-.6406Z" transform="translate(-664.7768 -340.1488)"/><path class="a" d="M973.9619,735.999V716.8936h6.3535a9.6121,9.6121,0,0,1,5.17,1.2773,8.0794,8.0794,0,0,1,3.0791,3.4453,11.0277,11.0277,0,0,1,1.0312,4.8027,10.7472,10.7472,0,0,1-1.1289,5.06,8.0445,8.0445,0,0,1-3.2188,3.3369,9.8446,9.8446,0,0,1-4.9326,1.1836Zm15.0762-9.58a10.2378,10.2378,0,0,0-1.0166-4.6416,7.6084,7.6084,0,0,0-2.9541-3.1884,9.1154,9.1154,0,0,0-4.752-1.1573H974.52v18.0293h5.7959a9.06,9.06,0,0,0,4.8076-1.1845,7.5566,7.5566,0,0,0,2.9258-3.2422A10.5212,10.5212,0,0,0,989.0381,726.4189Z" transform="translate(-664.7768 -340.1488)"/><path class="a" d="M1006.7627,735.4609v.5381H993.7764V716.8936h12.7353v.538H994.334v8.53h10.6728V726.5H994.334v8.9609Z" transform="translate(-664.7768 -340.1488)"/><path class="a" d="M1010.97,735.999V716.8936h8.0537a5.0435,5.0435,0,0,1,2.2432.497,5.633,5.633,0,0,1,1.7559,1.3321,6.49,6.49,0,0,1,1.1562,1.8574,5.4842,5.4842,0,0,1,.418,2.0986,6.0692,6.0692,0,0,1-.6406,2.7578,5.8562,5.8562,0,0,1-1.77,2.1133,4.9231,4.9231,0,0,1-2.6338.9414l5.0166,7.5078H1023.9l-5.0166-7.5078h-7.3565v7.5078Zm.5576-8.0459h7.6915a4.3166,4.3166,0,0,0,2.5771-.7666,5.13,5.13,0,0,0,1.6582-1.9785,5.7362,5.7362,0,0,0,.5859-2.5293,5.1954,5.1954,0,0,0-.6689-2.57,5.4379,5.4379,0,0,0-1.8115-1.9375,4.569,4.569,0,0,0-2.5362-.7393h-7.4961Z" transform="translate(-664.7768 -340.1488)"/><rect class="a" x="95.2232" y="134.9817" width="7.5916" height="69.8695"/></svg>