<svg id="Layer_1" data-name="Layer 1" xmlns="http://www.w3.org/2000/svg" viewBox="0 0 1014.48 788.53"><defs><style>.cls-1{fill:#fff;}.cls-2{stroke:#231f20;stroke-miterlimit:10;stroke-width:10px;}</style></defs><path class="cls-1" d="M460.34,261.39q-86.55-42.87-173-86c-1.66-.81-3.24-1.72-5.59-3l99.54-49.86v50.18c-.43,2.52,1.15,5,4,6.2,25.29,12.19,50.43,24.73,75.65,37.11a36.35,36.35,0,0,0,3.78,1.43V0l-4.8,2q-130.47,63.62-261,127.17c-3.16,1.32-5,4.06-4.52,6.87q.29,36.22,0,72.46c-.43,3.26,1.73,6.39,5.41,7.85q88.57,42.68,177,85.71c3.2,1.23,5.09,3.91,4.75,6.73-.15,35.71,0,71.4,0,107.11,0,1.46-.15,2.9-.28,4.85a29.15,29.15,0,0,1-3.32-1.28q-45.93-23.1-92.21-46.13c-3-1.53-3.09-3.36-3.09-5.67V304.35c.46-2.81-1.4-5.53-4.62-6.74-14.8-6.67-29.43-13.64-44.1-20.49l-39.11-18.29c0,1.68-.25,2.56-.25,3.43V409c-.13,2.39,1.6,4.6,4.36,5.55Q329.62,478.24,460.34,542c1.33.65,2.78,1.16,4.88,2V268.2C465.54,265.34,463.59,262.62,460.34,261.39Z" transform="translate(4.96 -0.01)"/><path d="M529.71,564.41v-544c1.66.67,3.09,1.17,4.42,1.81L800,149.68c3,1.15,4.87,3.67,4.6,6.34q-.22,56.5,0,113c.34,2.52-1.32,5-4.16,6.1-11.84,5.44-23.51,11.16-36.07,17.15,2,1.06,3.37,1.87,4.85,2.56,10.44,5,20.91,10.06,31.42,15,2.58.92,4.16,3,4,5.27q-.18,57.18,0,114.38c.22,2.24-1.31,4.35-3.86,5.31Q667.3,498.68,533.93,562.7C532.7,563.27,531.4,563.72,529.71,564.41Zm81.68-123.19a15.59,15.59,0,0,0,2-.59q49-23.5,97.85-47.13a6.43,6.43,0,0,0,2.86-5.08c.23-16.12,0-32.22.23-48.31.35-2.82-1.58-5.5-4.8-6.69-26.72-12.62-53.34-25.43-80-38.19-1.66-.79-3.29-1.69-5.54-2.83,2.27-1.16,3.88-2,5.57-2.84q40.23-19.24,80.47-38.42c2.94-1.08,4.67-3.54,4.29-6.09q-.3-24.17,0-48.32c.37-2.66-1.4-5.22-4.42-6.4-28.07-13.29-55.81-26.73-83.71-40.12-4.72-2.28-9.47-4.51-14.83-7.07V363" transform="translate(4.96 -0.01)"/><path d="M197.48,279.46l39.1,18.29c14.68,6.87,29.28,13.82,44.08,20.51,3.22,1.21,5.1,3.93,4.65,6.74-.18,21.12,0,42.24-.13,63.36,0,2.31,0,4.06,3.11,5.65,30.81,15.28,61.46,30.75,92.19,46.13a32,32,0,0,0,3.34,1.28c0-2,.26-3.39.26-4.85V329.48c.32-2.82-1.58-5.51-4.77-6.75Q290.8,280,202.38,237c-3.69-1.44-5.85-4.57-5.41-7.83.23-24.16.18-48.31,0-72.48-.44-2.81,1.35-5.54,4.49-6.87q130.6-63.46,261-127.15c1.35-.67,2.8-1.24,4.77-2V238.14c-1.28-.42-2.54-.88-3.75-1.41-25.22-12.37-50.38-24.85-75.65-37.13-2.83-1.2-4.42-3.67-4-6.2.15-14.73,0-29.47,0-44.21v-6L284.34,193.1c2.34,1.26,3.93,2.17,5.58,3q86.5,43,173,85.94c3.16,1.28,5,4,4.72,6.79q-.21,135.36,0,270.72v5.1c-2.12-.87-3.55-1.38-4.9-2Q332,498.9,201.28,435.21c-2.77-.94-4.52-3.16-4.36-5.55q.2-73.38,0-146.77A13.51,13.51,0,0,0,197.48,279.46Z" transform="translate(4.96 -0.01)"/><path d="M31.36,775.16v-7.74c.37.11.38.11.39,3.53v4.22Z" transform="translate(4.96 -0.01)"/><path d="M0,781.54H5.18v.27H0Z" transform="translate(4.96 -0.01)"/><path d="M454.59,773.17c3.79.25,3.87.17,4.32-3.7-.18,1.17,0,2.78-.63,3.39s-2.38.58-3.62.82Z" transform="translate(4.96 -0.01)"/><path d="M482.53,769.52c-.35-1.58,1-3.73-1.68-4.52C482.87,765.25,483.27,766.37,482.53,769.52Z" transform="translate(4.96 -0.01)"/><path d="M94.17,776v-9.35h.14V776Z" transform="translate(4.96 -0.01)"/><path d="M96.34,775.12V768h.24v7.11Z" transform="translate(4.96 -0.01)"/><path d="M29.81,763v8.33h-.12V763Z" transform="translate(4.96 -0.01)"/><path d="M487.41,766.07c-.16,2.38.72,4.83-.36,7.11C487.17,770.79,487.29,768.43,487.41,766.07Z" transform="translate(4.96 -0.01)"/><path d="M15.34,767v5.41H15V767Z" transform="translate(4.96 -0.01)"/><path d="M522,771.24l-.49-4.07.28-.16c.18.23.51.47.52.71,0,1.15,0,2.32-.07,3.48,0,0-.08.07-.12.07Z" transform="translate(4.96 -0.01)"/><path d="M462.8,773.33c.28-1.68.56-3.34.84-5C463.36,770,464.51,772.06,462.8,773.33Z" transform="translate(4.96 -0.01)"/><path d="M453,768.23l.61,1.8-1-.35c-.09.93-.19,1.85-.28,2.77l-.4-.08c.28-1.42.55-2.84.83-4.26Z" transform="translate(4.96 -0.01)"/><path d="M453.84,764.66c-2.9,1.18-3.54,1.1-4.21-.46C450.83,766.51,452.44,764.3,453.84,764.66Z" transform="translate(4.96 -0.01)"/><path d="M436.71,771.61v-5h.15v5Z" transform="translate(4.96 -0.01)"/><path d="M66.72,770.61v3.57h-.19v-3.57Z" transform="translate(4.96 -0.01)"/><path d="M132.21,774.51l-1.69,1.54,1.19-3.25Z" transform="translate(4.96 -0.01)"/><path d="M9.49,756.84l3.21,2.37-.33.41-3.1-2.53Z" transform="translate(4.96 -0.01)"/><path d="M511.13,769.28l.6,2.84-1,.13V769.4Z" transform="translate(4.96 -0.01)"/><path d="M84.55,763.4c1.22,2,3.87-.16,5.19,1.56C88.41,763.27,85.68,765.66,84.55,763.4Z" transform="translate(4.96 -0.01)"/><path d="M439.18,771.61c-.9-1.93-.68-4,0-4.36Z" transform="translate(4.96 -0.01)"/><path class="cls-2" d="M502.25,781.54l-46.42-47.91L426,703q-21.21-21.66-42.42-43.29c-17.87-18-35.73-36-53.37-54.06-11.33-11.55-22.31-23.29-33.61-34.86-14.71-15.1-29.64-30.06-44.39-45.14-11.28-11.54-22.36-23.25-33.66-34.8-12.77-13.11-25.91-26.07-38.77-39.18-11.26-11.44-22.36-23-33.57-34.55C135.38,406,124.48,395,113.66,383.86c-6.18-6.32-12.2-12.72-18.38-19-10.74-11-21.61-21.93-32.38-32.95-8.32-8.49-16.49-17.09-24.81-25.61-7.66-8-15.65-15.85-23.43-23.8C10,277.69,5.29,272.91.82,268a3.36,3.36,0,0,1-.53-3.41c10.21-19.74,20.42-39.41,30.63-59.17C40.49,186.73,49.8,168,59.3,149.26c11.92-23.52,24-47,35.73-70.51Q110.63,47.94,125.94,17c2.81-5.65,2.7-5.69,10.44-5.69H871c3.24,0,5.11.43,6.46,3.21,7.3,14.92,15,29.74,22.54,44.57l26.62,52.24c9.85,19.47,19.6,39,29.45,58.43q16.84,33.38,33.79,66.73c4.83,9.51,9.75,19,14.47,28.45a3.07,3.07,0,0,1-.58,3c-8.91,9.29-17.87,18.48-27,27.71s-18.43,19-27.67,28.45c-10.64,10.94-21.36,21.81-32,32.72-8.4,8.58-16.72,17.16-25.09,25.71-10.87,11.1-21.85,22.12-32.64,33.24C848,427.42,837,439.15,825.66,450.73c-9.8,10-19.86,19.9-29.69,29.9-9.11,9.29-18,18.68-27.1,28-7.91,8.13-15.93,16.26-23.87,24.29-9,9.2-17.86,18.45-26.85,27.66s-17.66,18-26.46,27.09c-7.48,7.7-14.88,15.47-22.41,23.15-13.61,13.9-27.36,27.75-40.84,41.67S601.51,680.4,588,694.31s-26.7,27.19-40,40.83q-19.14,19.64-38.28,39.33C507.43,776.91,505,779,502.25,781.54Zm0-39.06c4-3.89,7.66-7.44,11.28-11.12,13.45-13.86,26.78-27.77,40.25-41.61s27.21-27.62,40.84-41.46c14.68-15,29.25-30,43.93-45,11.38-11.62,23-23.19,34.22-34.84,9.32-9.57,18.4-19.3,27.75-28.88,12.76-13,25.7-25.91,38.43-38.94,16.62-17,33.18-34.1,49.67-51.1s33.36-33.86,50-50.81c11.94-12.19,23.78-24.39,35.73-36.58q21.21-21.74,42.47-43.46,26.57-27.21,53-54.57a5.15,5.15,0,0,0,1.33-4.88c-4.93-10.16-10.34-20.06-15.44-30.1Q934.74,187.89,914,146.67,887.46,94.37,861,42c-.51-1.87-2.71-3.14-5.1-2.93H521.73q-183,0-366-.14c-7.4,0-12.48.86-14.12,7.14A4,4,0,0,1,141,47q-16.65,33.23-33.34,66.46Q85.31,157.76,62.82,202,48.41,230.44,33.54,258.6a4,4,0,0,0,1,5.25l15.72,15.89c8.73,8.8,17.53,17.54,26.21,26.42,10.44,10.67,20.75,21.43,31.14,32.12q13.06,13.47,26.16,26.89l27.49,28.19c9.8,10,19.68,20,29.45,30,9.35,9.57,18.59,19.2,27.93,28.78,9.8,10,19.7,20,29.53,30,9.29,9.5,18.5,19.05,27.79,28.46,9.8,10,19.66,20,29.43,30,7.15,7.32,14.11,14.71,21.29,22,12.76,13,25.52,25.87,38.28,38.86,9.73,9.9,19.25,19.94,28.94,29.86C405.39,643.19,417,655,428.59,666.87c9.37,9.61,18.61,19.29,28.08,28.88s19.42,19.57,29.07,29.37c5.49,5.77,10.9,11.44,16.64,17.36Z" transform="translate(4.96 -0.01)"/></svg>