<svg xmlns="http://www.w3.org/2000/svg" viewBox="0 0 488.86 420.74"><defs><style>.a{fill:#fff;}</style></defs><path class="a" d="M812.8,340.21h90.72v5.93c0,41.65-.22,83.3.11,125,.13,16.08-6,28-20,35.75a21.47,21.47,0,0,0-2.49,1.65c-.23.17-.31.56-.66,1.24l6.89,4.63c10.43,7,16.11,16.74,16.14,29.34q.16,53.47,0,107a9.35,9.35,0,0,1-1.37,5.13q-21.36,29.57-43,59a7,7,0,0,1-1.34,1.06q-22-30.1-43.85-60.17a9.25,9.25,0,0,1-1.3-5.15q-.09-153.69,0-307.39C812.59,342.29,812.7,341.49,812.8,340.21Zm31.05,185.1a10.63,10.63,0,0,0-.43,1.87q0,57.18,0,114.36a6,6,0,0,0,.79,3.28c4.41,6.22,8.95,12.35,13.87,19.07,4.36-6,8.53-11.34,12.26-17a14.08,14.08,0,0,0,2.35-7.25c.14-36.29.1-72.58.08-108.86,0-1.76-.18-3.52-.29-5.47Zm28.63-31.23V371.19H843.66V494.08Z" transform="translate(-544.83 -340.15)"/><path class="a" d="M920.55,630.38V340.46c1.57-.12,2.86-.31,4.15-.31,15.33,0,30.66,0,46,.28a8.78,8.78,0,0,1,6.14,3c16.25,22.34,32.29,44.85,48.34,67.34,1.12,1.58,2,3.34,3.11,5.31l-5.1.41c4.75,3.36,1.62,7.06,1.48,10.53-.31,8.15,0,16.32-.16,24.48a76.44,76.44,0,0,1-1,8.11l4.39,1,0,1c-1.73.11-3.45.29-5.18.31-22.16.25-44.32.62-66.48.61-4.56,0-5.89,1.13-5.87,5.78q.27,58,0,116a16.29,16.29,0,0,1-2.79,8.64C939,605.14,930.11,617.16,920.55,630.38Zm30.27-259.33a12.3,12.3,0,0,0-.34,2.05c0,18.31,0,36.62-.1,54.93,0,3.8,1.74,4.32,4.89,4.31,13.65-.08,27.31,0,41,.05h7.38c-1.54-2.35-2.36-3.71-3.28-5-12.46-17.26-25.16-34.36-37.27-51.86C959.65,370.62,956,369.83,950.82,371.05Z" transform="translate(-544.83 -340.15)"/><path class="a" d="M712.82,432.37h54.94c0,7.88-.31,15.22.1,22.52.37,6.72.36,7-6.23,7.05-27.32.21-54.65.36-82,.82-4.53.08-7.32-1.3-9.9-5-6.56-9.31-6.74-9.19,0-18.55q34.73-47.91,69.51-95.77c.91-1.25,2.38-2.91,3.64-2.94,8.76-.26,17.53-.14,26.28-.14-1.81,10.48-3.61,20.11-1.26,30.09.66,2.8-1.16,6.1-1.21,9.18-.17,10.49,0,21-.11,31.49,0,4.33,2.87,5.66,6.18,6.62a41.81,41.81,0,0,0,4.27.57c-14.06.52-11.05,1.49-11.25-10.44-.18-10.66,0-21.33-.12-32,0-2-.83-5.57-1.76-5.74-3.05-.54-6.48-1.15-8.89,2.47-4.62,6.93-9.62,13.6-14.47,20.36q-12.37,17.24-24.77,34.48C715,428.66,714.31,430,712.82,432.37Z" transform="translate(-544.83 -340.15)"/><path class="a" d="M682.71,475.31c12.57,0,24.16-.11,35.75.14,1.37,0,3,1.73,4,3.06,13,17.85,25.5,36.18,39.27,53.46,4.77,6,6,11.53,5.84,18.46-.23,10.3.07,20.61,0,30.91,0,2.09-.74,4.18-1.42,7.83Z" transform="translate(-544.83 -340.15)"/><path class="a" d="M964.6,568.27c0-10.24.8-20.56-.2-30.71-1.38-14.15,2.47-25.77,12-36.32,6.43-7.14,11.44-15.55,17.29-23.24a7.21,7.21,0,0,1,4.72-2.72c10-.24,20-.12,30-.12h5.31l-68.05,93.46Z" transform="translate(-544.83 -340.15)"/><path class="a" d="M766.22,526.93V465.05h.87v61.89Z" transform="translate(-544.83 -340.15)"/><path class="a" d="M560.73,760.89H545.28c-1.06-3.09-.34-4.57,3.05-4.37a83.11,83.11,0,0,0,9.47,0C561.42,756.31,561.56,758.11,560.73,760.89Z" transform="translate(-544.83 -340.15)"/><path d="M679,719.42a7.83,7.83,0,0,0-1.18-1,5.42,5.42,0,0,0-1.26-.66,6.74,6.74,0,0,0-1.39-.35,11.61,11.61,0,0,0-1.63-.11q-3.37,0-4.89,1.25a4.1,4.1,0,0,0-1.52,3.32,3.34,3.34,0,0,0,.64,2.17,4.37,4.37,0,0,0,2,1.27,29.28,29.28,0,0,0,3.58.9,28.07,28.07,0,0,1,3.82,1,5.83,5.83,0,0,1,2.49,1.51,3.74,3.74,0,0,1,.88,2.65,4.46,4.46,0,0,1-.47,2.06,4.12,4.12,0,0,1-1.38,1.5,6.79,6.79,0,0,1-2.2.93,11.9,11.9,0,0,1-2.91.32,12.38,12.38,0,0,1-2.94-.32,9.43,9.43,0,0,1-2.53-1,11.42,11.42,0,0,1-2.23-1.66l.42-.35a9.78,9.78,0,0,0,1.56,1.3,9,9,0,0,0,1.72.88,8.58,8.58,0,0,0,1.9.51,13.1,13.1,0,0,0,2.12.17,8.7,8.7,0,0,0,4.67-1.08,3.55,3.55,0,0,0,1.71-3.2,3.6,3.6,0,0,0-.69-2.3,4.92,4.92,0,0,0-2.16-1.43,23.23,23.23,0,0,0-3.75-1,30.72,30.72,0,0,1-3.71-.9,5.11,5.11,0,0,1-2.32-1.4,3.63,3.63,0,0,1-.8-2.49,4.62,4.62,0,0,1,.85-2.81,5.22,5.22,0,0,1,2.41-1.74,10.39,10.39,0,0,1,3.65-.59,10.24,10.24,0,0,1,2.3.23,6.87,6.87,0,0,1,1.93.72,7.25,7.25,0,0,1,1.65,1.34Z" transform="translate(-544.83 -340.15)"/><path d="M690.36,716.89h.5L699.47,736h-.61l-3.08-6.84H685.42L682.33,736h-.61Zm5.18,11.74-4.93-11-5,11Z" transform="translate(-544.83 -340.15)"/><path d="M717.61,716.89V736h-.55v-9.5H703.32V736h-.56V716.89h.56V726h13.74v-9.07Z" transform="translate(-544.83 -340.15)"/><path d="M723.13,736V716.89h.56V736Z" transform="translate(-544.83 -340.15)"/><path d="M743.31,731.05a4.8,4.8,0,0,1-.67,2.45,5.17,5.17,0,0,1-1.79,1.81,4.61,4.61,0,0,1-2.48.69h-9.16V716.89H738a4.09,4.09,0,0,1,2.41.72,4.78,4.78,0,0,1,1.56,1.83,5.26,5.26,0,0,1,.54,2.32,4.92,4.92,0,0,1-.77,2.67,4.46,4.46,0,0,1-2.07,1.77,5,5,0,0,1,3.68,4.85Zm-13.55-13.62v8.67h8a3.62,3.62,0,0,0,2.14-.65,4.57,4.57,0,0,0,1.45-1.64,4.23,4.23,0,0,0,.53-2,4.59,4.59,0,0,0-.5-2.14A4.16,4.16,0,0,0,740,718a3.55,3.55,0,0,0-2.06-.61Zm13,13.62a4.49,4.49,0,0,0-.54-2.16,4.57,4.57,0,0,0-1.5-1.62,3.77,3.77,0,0,0-2.14-.64h-8.81v8.83h8.61a4,4,0,0,0,2.22-.64,5,5,0,0,0,1.57-1.66A4.16,4.16,0,0,0,742.75,731.05Z" transform="translate(-544.83 -340.15)"/><path d="M768.83,731.05a4.7,4.7,0,0,1-.67,2.45,5.14,5.14,0,0,1-1.78,1.81,4.61,4.61,0,0,1-2.48.69h-9.17V716.89h8.75a4.06,4.06,0,0,1,2.41.72,4.61,4.61,0,0,1,1.56,1.83,5.14,5.14,0,0,1,.55,2.32,4.92,4.92,0,0,1-.77,2.67,4.43,4.43,0,0,1-2.08,1.77,4.88,4.88,0,0,1,2.69,1.85A5,5,0,0,1,768.83,731.05Zm-13.54-13.62v8.67h8a3.65,3.65,0,0,0,2.15-.65,4.67,4.67,0,0,0,1.45-1.64,4.35,4.35,0,0,0,.53-2,4.71,4.71,0,0,0-.5-2.14,4.19,4.19,0,0,0-1.4-1.58,3.52,3.52,0,0,0-2.06-.61Zm13,13.62a4.49,4.49,0,0,0-2-3.78,3.79,3.79,0,0,0-2.14-.64h-8.81v8.83h8.61a4,4,0,0,0,2.22-.64,5.08,5.08,0,0,0,1.57-1.66A4.14,4.14,0,0,0,768.27,731.05Z" transform="translate(-544.83 -340.15)"/><path d="M787.84,716.89V736h-.56v-9.5H773.54V736H773V716.89h.56V726h13.74v-9.07Z" transform="translate(-544.83 -340.15)"/><path d="M799.74,716.89h.5L808.85,736h-.61l-3.08-6.84H794.8L791.71,736h-.61Zm5.18,11.74-4.93-11-5,11Z" transform="translate(-544.83 -340.15)"/><path d="M812.14,736V716.89h8.05a5.09,5.09,0,0,1,2.25.5,5.72,5.72,0,0,1,1.75,1.33,6.67,6.67,0,0,1,1.16,1.86,5.47,5.47,0,0,1,.42,2.1,6.06,6.06,0,0,1-.65,2.76,5.74,5.74,0,0,1-1.77,2.11,4.87,4.87,0,0,1-2.63.94l5,7.51h-.67l-5-7.51H812.7V736Zm.56-8h7.69a4.29,4.29,0,0,0,2.57-.76,5.15,5.15,0,0,0,1.66-2,5.76,5.76,0,0,0,.59-2.53,5.14,5.14,0,0,0-.67-2.57,5.52,5.52,0,0,0-1.81-1.94,4.6,4.6,0,0,0-2.54-.74H812.7Z" transform="translate(-544.83 -340.15)"/><path d="M836.1,716.89h.51L845.22,736h-.62l-3.07-6.84H831.17L828.08,736h-.61Zm5.19,11.74-4.94-11-4.94,11Z" transform="translate(-544.83 -340.15)"/><path d="M846.58,734.52a7,7,0,0,0,1.8.79,7.9,7.9,0,0,0,2.19.29,5.64,5.64,0,0,0,2.84-.62,3.78,3.78,0,0,0,1.59-1.8,9.66,9.66,0,0,0,.7-2.87c.11-1.12.16-2.38.16-3.79v-9.63h.56v9.64a35.7,35.7,0,0,1-.2,3.92,9.94,9.94,0,0,1-.78,3,4.19,4.19,0,0,1-1.75,2,6.12,6.12,0,0,1-3.12.68,8.52,8.52,0,0,1-2.34-.29,6.92,6.92,0,0,1-2-.89Z" transform="translate(-544.83 -340.15)"/><path d="M869,736V716.89h8a5.09,5.09,0,0,1,2.25.5,5.72,5.72,0,0,1,1.75,1.33,6.67,6.67,0,0,1,1.16,1.86,5.47,5.47,0,0,1,.42,2.1,6,6,0,0,1-.69,2.81,5.81,5.81,0,0,1-1.88,2.17,4.83,4.83,0,0,1-2.81.83h-7.69V736Zm.56-8h7.69a4.32,4.32,0,0,0,2.59-.78,5.09,5.09,0,0,0,1.66-2,5.81,5.81,0,0,0,.57-2.5,5.14,5.14,0,0,0-.67-2.57,5.52,5.52,0,0,0-1.81-1.94,4.6,4.6,0,0,0-2.54-.74h-7.49Z" transform="translate(-544.83 -340.15)"/><path d="M891.34,716.89h.5L900.45,736h-.61l-3.08-6.84H886.4L883.31,736h-.61Zm5.18,11.74-4.93-11-5,11Z" transform="translate(-544.83 -340.15)"/><path d="M903.74,736V716.89h8a5,5,0,0,1,2.24.5,5.65,5.65,0,0,1,1.76,1.33,6.67,6.67,0,0,1,1.16,1.86,5.46,5.46,0,0,1,.41,2.1,6.05,6.05,0,0,1-.64,2.76,5.74,5.74,0,0,1-1.77,2.11,4.87,4.87,0,0,1-2.63.94l5,7.51h-.67l-5-7.51h-7.36V736Zm.55-8H912a4.29,4.29,0,0,0,2.57-.76,5.15,5.15,0,0,0,1.66-2,5.76,5.76,0,0,0,.59-2.53,5.24,5.24,0,0,0-.67-2.57,5.52,5.52,0,0,0-1.81-1.94,4.63,4.63,0,0,0-2.54-.74h-7.5Z" transform="translate(-544.83 -340.15)"/><path d="M940.19,736V718.08l-8.78,14.15H931l-8.77-14.15V736h-.56V716.89h.44l9.12,14.7,9.11-14.7h.45V736Z" transform="translate(-544.83 -340.15)"/><path d="M946.26,736V716.89h.56V736Z" transform="translate(-544.83 -340.15)"/><path d="M952.9,717.94V736h-.56V716.89h.42l15.13,18.33V716.89h.56V736h-.65Z" transform="translate(-544.83 -340.15)"/><path d="M974,736V716.89h6.36a9.64,9.64,0,0,1,5.17,1.28,8,8,0,0,1,3.07,3.45,11,11,0,0,1,1,4.8,10.79,10.79,0,0,1-1.13,5.06,8.16,8.16,0,0,1-3.22,3.34,10,10,0,0,1-4.93,1.18ZM989,726.42a10.19,10.19,0,0,0-1-4.64,7.58,7.58,0,0,0-2.95-3.19,9.14,9.14,0,0,0-4.75-1.16h-5.8v18h5.8a9,9,0,0,0,4.8-1.18,7.56,7.56,0,0,0,2.93-3.25A10.5,10.5,0,0,0,989,726.42Z" transform="translate(-544.83 -340.15)"/><path d="M1006.76,735.46V736h-13V716.89h12.73v.54H994.33V726H1005v.54H994.33v9Z" transform="translate(-544.83 -340.15)"/><path d="M1011,736V716.89h8a5.09,5.09,0,0,1,2.25.5,5.72,5.72,0,0,1,1.75,1.33,6.67,6.67,0,0,1,1.16,1.86,5.47,5.47,0,0,1,.42,2.1,6.18,6.18,0,0,1-.64,2.76,5.94,5.94,0,0,1-1.77,2.11,4.9,4.9,0,0,1-2.64.94l5,7.51h-.67l-5-7.51h-7.35V736Zm.56-8h7.69a4.34,4.34,0,0,0,2.58-.76,5.21,5.21,0,0,0,1.65-2,5.76,5.76,0,0,0,.59-2.53,5.14,5.14,0,0,0-.67-2.57,5.52,5.52,0,0,0-1.81-1.94,4.6,4.6,0,0,0-2.54-.74h-7.49Z" transform="translate(-544.83 -340.15)"/></svg>