<svg id="e7869d50-e0f7-439c-b3cb-29169e04de03" data-name="Layer 1" xmlns="http://www.w3.org/2000/svg" viewBox="0 0 318.28 310.69"><defs><style>.b728790e-e295-4c85-9f9c-19fa021da529{fill:#2c3b97;}</style></defs><path class="b728790e-e295-4c85-9f9c-19fa021da529" d="M1003.42,621c7.6,0,15.22.15,22.82,0,16.67-.4,23-6.58,23.59-22.65a151,151,0,0,0-.34-20.52c-1.17-11.5-6.16-16.4-17.92-17.8-6.14-.72-12.4-.51-18.6-.61-7-.11-14-.09-21.06-.17-.5,0,30.44-56.7,46.91-84.51l1.5.72-18.45,42.51c7.89,0,14.52-.36,21.09.06,32.07,2,52.78,20.52,56.43,51.56a193,193,0,0,1,.26,37c-1.14,14.73-9.36,25.46-23.2,31.89-1.6.75-3.06,1.77-5.73,3.34,26.63,6.68,34.6,24.4,33.45,47.9-.58,11.8.22,23.84-1.9,35.37-5.25,28.59-25.59,46.24-55.46,47.08-37,1-74,.37-111,.49-6.22,0-8.71-3.14-8.71-8.86,0-32.4-.05-64.79.07-97.18a14,14,0,0,1,2-6.67q23.33-39.74,46.9-79.33c.32-.55,3.24,20.76,2.73,31.66-.34,7.09,2.43,9.16,9.38,8.92,5.08-.17,10.17-.19,15.26-.17m-24.51,75c0,9.47-.32,19,.24,28.4.13,2.1,3.35,5.72,5.19,5.75,17.26.29,34.55.44,51.78-.39,11.41-.55,17-6.74,17.55-17.88.47-8.92.3-17.89.23-26.83-.13-15.84-6.11-22.39-22.11-22.94-15.37-.52-30.77,0-46.15-.27-5.54-.08-6.89,2.53-6.79,7.31C979.05,678.06,978.91,687,978.91,696Z" transform="translate(-786 -462)"/><path class="b728790e-e295-4c85-9f9c-19fa021da529" d="M857.43,759.3,875.77,717c-10.86,0-20.5.49-30.07-.1-22.79-1.4-41.21-10.47-52-31-6.94-13.25-8.37-27.76-7-42.32.25-2.66,4.81-6.82,7.61-7,11.83-.8,23.75-.37,35.64-.36,5.29,0,7.93,2.7,8.05,7.82,0,.52,0,1,0,1.57C839.21,669,844.49,674,868.82,674c8.9,0,17.89.17,26.67-1,12.22-1.65,17.2-7.48,18.62-19.43,2.91-24.38-6.69-34.79-32.56-37.79-16.28-1.89-32.36-5.61-48.44-8.88-29.33-6-43.26-25.62-46.17-52.93a160.27,160.27,0,0,1,1.15-43.2c4.87-28.79,25.95-46.55,55.84-48,19.94-1,40-1,60,0,35.52,1.69,57.73,25.72,58.66,62.08.45,18,0,18.48-18.7,18.48-7.57,0-15.13,0-22.7,0-6.86,0-10.64-2.72-10.47-9.91a54.1,54.1,0,0,0-1-11c-1.8-9.86-6.32-14.81-16.51-15.43a375.89,375.89,0,0,0-38,0c-8.11.34-14.15,5.07-15.33,12.89-1.38,9.29-2.56,19-1,28.13.82,4.72,7.06,10.61,12.09,12.15,11.18,3.44,23.25,4,34.76,6.61,15.74,3.51,31.32,7.69,46.9,11.84,2.78.74,5.35,2.52,7.78,4.15,15.22,10.25,15.93,12.88,7,28Q904.17,684,860.77,757.1a23.31,23.31,0,0,1-2.23,2.77Z" transform="translate(-786 -462)"/></svg>