<svg id="Layer_1" data-name="Layer 1" xmlns="http://www.w3.org/2000/svg" viewBox="0 0 268.74 255.51"><defs><style>.cls-1{stroke:#231f20;stroke-miterlimit:10;stroke-width:10px;}</style></defs><path d="M2732.42-61.31V-232.74c.43.21.8.37,1.14.57L2802-192a2,2,0,0,1,1.18,2q-.06,17.81,0,35.61a1.9,1.9,0,0,1-1.07,1.92c-3,1.71-6,3.51-9.29,5.4.51.34.87.59,1.25.81,2.69,1.58,5.39,3.17,8.1,4.72a1.67,1.67,0,0,1,1,1.66q0,18,0,36.05a1.69,1.69,0,0,1-1,1.67Q2767.86-82,2733.51-61.85C2733.19-61.67,2732.86-61.53,2732.42-61.31Zm21-38.82a3.24,3.24,0,0,0,.52-.19c8.41-4.94,16.82-9.86,25.2-14.85a2.12,2.12,0,0,0,.74-1.6c.06-5.08,0-10.15.06-15.23a2.08,2.08,0,0,0-1.24-2.1c-6.88-4-13.74-8-20.6-12-.43-.25-.85-.53-1.43-.89.59-.36,1-.64,1.44-.9,6.91-4,13.8-8.09,20.73-12.1a1.87,1.87,0,0,0,1.1-1.92q-.08-7.62,0-15.23a2,2,0,0,0-1.14-2c-7.23-4.19-14.38-8.43-21.56-12.65l-3.82-2.23v69.29" transform="translate(-2590.99 240.6)"/><path d="M2646.84-151.11l10.08,5.77c3.78,2.16,7.54,4.35,11.35,6.46a2.06,2.06,0,0,1,1.2,2.12c0,6.66,0,13.31,0,20a1.69,1.69,0,0,0,.8,1.78c7.94,4.82,15.84,9.69,23.75,14.54.28.15.57.28.86.4,0-.64.07-1.07.07-1.53v-33.75a2.15,2.15,0,0,0-1.23-2.12q-22.8-13.46-45.57-27a2.44,2.44,0,0,1-1.4-2.47q.09-11.42,0-22.84a2.13,2.13,0,0,1,1.16-2.16q33.65-20,67.23-40.07c.35-.21.73-.39,1.23-.64v68.53a10.45,10.45,0,0,1-1-.44c-6.5-3.9-13-7.83-19.49-11.7a1.89,1.89,0,0,1-1-2c0-4.64,0-9.28,0-13.93V-194l-25.64,15.72c.6.39,1,.68,1.44.95l44.55,27.08a2.16,2.16,0,0,1,1.22,2.13q-.06,42.66,0,85.32v1.6c-.55-.27-.92-.43-1.27-.64L2647.82-102a1.79,1.79,0,0,1-1.12-1.75q0-23.11,0-46.25A4.72,4.72,0,0,0,2646.84-151.11Z" transform="translate(-2590.99 240.6)"/><path d="M2721.52,2.23a7.06,7.06,0,0,1-.09,2.25Z" transform="translate(-2590.99 240.6)"/><path d="M2730.44,3.86l-.12-1.28.07-.05c.05.07.13.15.13.22,0,.37,0,.74,0,1.1l0,0Z" transform="translate(-2590.99 240.6)"/><path d="M2727.63,3.25l.16.89-.26,0v-.9Z" transform="translate(-2590.99 240.6)"/><path class="cls-1" d="M2725.35,7.11l-12-15.1-7.69-9.65-10.92-13.64c-4.61-5.68-9.21-11.34-13.75-17-2.92-3.64-5.75-7.34-8.66-11-3.79-4.76-7.63-9.47-11.43-14.23-2.91-3.63-5.76-7.32-8.67-11-3.29-4.13-6.68-8.22-10-12.35-2.9-3.61-5.76-7.24-8.64-10.89-2.79-3.5-5.6-7-8.39-10.48-1.59-2-3.14-4-4.73-6-2.77-3.47-5.57-6.91-8.34-10.38-2.15-2.68-4.25-5.39-6.39-8.07-2-2.51-4-5-6-7.5-1.21-1.52-2.41-3-3.56-4.57a1.25,1.25,0,0,1-.14-1.08l7.89-18.64c2.46-5.89,4.86-11.81,7.31-17.7,3.07-7.41,6.18-14.81,9.2-22.22q4-9.7,8-19.45c.72-1.78.69-1.79,2.68-1.79h189.23c.84,0,1.32.13,1.67,1,1.88,4.7,3.86,9.37,5.8,14.05q3.43,8.23,6.86,16.46c2.54,6.13,5.05,12.28,7.59,18.41q4.34,10.51,8.7,21c1.24,3,2.51,6,3.73,9a1.16,1.16,0,0,1-.15,1c-2.3,2.93-4.6,5.82-7,8.73s-4.75,6-7.13,9q-4.11,5.16-8.25,10.31l-6.46,8.1c-2.8,3.5-5.63,7-8.41,10.47-2.91,3.66-5.77,7.35-8.68,11-2.52,3.16-5.11,6.28-7.64,9.43-2.35,2.92-4.65,5.88-7,8.82-2,2.56-4.1,5.12-6.14,7.65-2.32,2.9-4.61,5.82-6.92,8.72s-4.55,5.68-6.82,8.53c-1.92,2.43-3.83,4.88-5.77,7.3-3.5,4.38-7,8.74-10.52,13.13s-6.93,8.8-10.43,13.18-6.87,8.57-10.3,12.87c-3.28,4.12-6.57,8.27-9.86,12.39C2726.68,5.65,2726.05,6.31,2725.35,7.11Zm0-12.31c1-1.22,2-2.34,2.9-3.5,3.47-4.37,6.9-8.75,10.37-13.11s7-8.71,10.52-13.07c3.78-4.73,7.53-9.47,11.31-14.19,2.94-3.66,5.92-7.3,8.82-11,2.4-3,4.74-6.09,7.15-9.11,3.28-4.1,6.62-8.16,9.9-12.27,4.28-5.35,8.54-10.74,12.79-16.1s8.59-10.67,12.87-16c3.08-3.84,6.13-7.69,9.21-11.53l10.94-13.69q6.84-8.58,13.64-17.2a1.88,1.88,0,0,0,.34-1.54c-1.27-3.2-2.66-6.32-4-9.48q-5.39-13-10.73-26-6.83-16.49-13.64-33a1.2,1.2,0,0,0-1.31-.92h-86.09q-47.13,0-94.28-.05c-1.91,0-3.21.27-3.63,2.25a1.18,1.18,0,0,1-.16.29q-4.27,10.47-8.58,20.94-5.76,14-11.55,27.9-3.72,9-7.54,17.84a1.43,1.43,0,0,0,.24,1.65l4,5c2.25,2.77,4.52,5.53,6.75,8.33,2.69,3.36,5.35,6.75,8,10.12l6.74,8.47,7.08,8.88c2.53,3.16,5.07,6.29,7.59,9.45s4.78,6,7.19,9.07,5.08,6.3,7.61,9.45c2.39,3,4.76,6,7.16,9,2.52,3.16,5.06,6.3,7.58,9.46,1.84,2.31,3.63,4.64,5.48,6.94L2690-49.64c2.51,3.12,5,6.29,7.46,9.41,3,3.74,6,7.46,8.94,11.2,2.42,3,4.8,6.08,7.24,9.1s5,6.17,7.48,9.26c1.42,1.82,2.81,3.61,4.29,5.47Z" transform="translate(-2590.99 240.6)"/></svg>